# AST/ASF file generated using VICON BodyLanguage
# -----------------------------------------------
:version 1.10
:name VICON
:units
  mass 1.0
  length 0.45
  angle deg
:documentation
   .ast/.asf automatically generated from VICON data using
   VICON BodyBuilder and BodyLanguage model FoxedUp or BRILLIANT.MOD
:root
   order TX TY TZ RX RY RZ
   axis XYZ
   position 0 0 0  
   orientation 0 0 0 
:bonedata
  begin
     id 1 
     name lhipjoint
     direction 0.575328 -0.747301 0.332475 
     length 2.40933 
     axis 0 0 0  XYZ
  end
  begin
     id 2 
     name lfemur
     direction 0.34202 -0.939693 0  
     length 7.31453  
     axis 0 0 20  XYZ
    dof rx ry rz
    limits (-160.0 20.0)
           (-70.0 70.0)
           (-60.0 70.0)
  end
  begin
     id 3 
     name ltibia
     direction 0.34202 -0.939693 0   
     length 7.82185   
     axis 0 0 20   XYZ
    dof rx
    limits (-10.0 170.0)
  end
  begin
     id 4 
     name lfoot
     direction 0.0795993 -0.218697 0.972541   
     length 2.19173   
     axis -90 7.62852e-016 20   XYZ
    dof rx rz
    limits (-45.0 90.0)
           (-70.0 20.0)
  end
  begin
     id 5 
     name ltoes
     direction 1.53537e-011 -4.21894e-011 1   
     length 1.10023   
     axis -90 7.62852e-016 20   XYZ
    dof rx
    limits (-90.0 20.0)
  end
  begin
     id 6 
     name rhipjoint
     direction -0.513884 -0.783789 0.348708   
     length 2.29716  
     axis 0 0 0  XYZ 
  end
  begin
     id 7 
     name rfemur
     direction -0.34202 -0.939693 0   
     length 7.59573   
     axis 0 0 -20   XYZ
    dof rx ry rz
    limits (-160.0 20.0)
           (-70.0 70.0)
           (-70.0 60.0)
  end
  begin
     id 8 
     name rtibia
     direction -0.34202 -0.939693 0   
     length 7.66402   
     axis 0 0 -20   XYZ
    dof rx
    limits (-10.0 170.0)
 end
 begin
     id 9 
     name rfoot
     direction -0.137793 -0.378584 0.915253   
     length 2.27056  
     axis -90 -7.62852e-016 -20   XYZ
    dof rx rz
    limits (-45.0 90.0)
           (-20.0 70.0)
  end
  begin
     id 10 
     name rtoes
     direction -1.53493e-011 -4.22159e-011 1   
     length 1.11766   
     axis -90 -7.62852e-016 -20   XYZ
    dof rx
    limits (-90.0 20.0)
  end
  begin
     id 11 
     name lowerback
     direction -0.00732775 0.998356 -0.05685   
     length 2.16513   
     axis 0 0 0   XYZ
    dof rx ry rz
    limits (-20.0 45.0)
           (-30.0 30.0)
           (-30.0 30.0)
  end
  begin
     id 12 
     name upperback
     direction 0.0218081 0.999627 -0.0164647   
     length 2.16755   
     axis 0 0 0   XYZ
    dof rx ry rz
    limits (-20.0 45.0)
           (-30.0 30.0)
           (-30.0 30.0)
  end
  begin
     id 13 
     name thorax
     direction 0.02365 0.999661 0.0108914   
     length 2.16932   
     axis 0 0 0   XYZ
    dof rx ry rz
    limits (-20.0 45.0)
           (-30.0 30.0)
           (-30.0 30.0)
  end
  begin
     id 14 
     name lowerneck
     direction -0.0523929 0.978385 0.200044   
     length 1.63877   
     axis 0 0 0   XYZ
    dof rx ry rz
    limits (-20.0 45.0)
           (-30.0 30.0)
           (-30.0 30.0)
  end
  begin
     id 15 
     name upperneck
     direction 0.0448674 0.981321 -0.187074   
     length 1.69014   
     axis 0 0 0   XYZ
    dof rx ry rz
    limits (-20.0 45.0)
           (-30.0 30.0)
           (-30.0 30.0)
  end
  begin
     id 16
     name head
     direction 0.0199089 0.996118 -0.0857429  
     length 1.70094  
     axis 0 0 0   XYZ
    dof rx ry rz
    limits (-20.0 45.0)
           (-30.0 30.0)
           (-30.0 30.0)
  end
  begin
     id 17 
     name lclavicle
     direction 0.940366 0.30191 -0.156722  
     length 3.37521  
     axis 0 0 0   XYZ
    dof ry rz
    limits (-20.0 10.0)
           (0.0 20.0)
  end
  begin
     id 18 
     name lhumerus
     direction 1 -4.4897e-011 -1.7911e-027   
     length 5.25287   
     axis 180 -30 -90   XYZ
    dof rx ry rz
    limits (-60.0 90.0)
           (-90.0 90.0)
           (-90.0 90.0)
  end
  begin
     id 19
     name lradius
     direction 1 -4.48951e-011 1.04424e-027   
     length 3.51014   
     axis 180 -30 -90   XYZ
    dof rx
    limits (-10.0 170.0)
  end
  begin
     id 20
     name lwrist
     direction 1 -4.48997e-011 -9.5942e-028   
     length 1.75507   
     axis 8.48502e-016 90 90   XYZ
    dof ry
    limits (-180.0 0.0)
 end
  begin
     id 21 
     name lhand
     direction 1 -4.48831e-011 -1.90777e-027   
     length 0.706179   
     axis 1.22306e-015 90 90   XYZ
    dof rx rz
    limits (-90.0 90.0)
           (-45.0 45.0)
  end
  begin
     id 22 
     name lfingers
     direction 1 -4.49108e-011 -3.85244e-027   
     length 0.569339   
     axis 2.44611e-015 90 90   XYZ
    dof rx
    limits (0.0 90.0)
  end
  begin
     id 23
     name lthumb
     direction 0.707107 -6.34953e-011 0.707107   
     length 0.817461   
     axis -90 45 -1.62303e-014   XYZ
    dof rx rz
    limits (-45.0 45.0)
           (-45.0 45.0)
  end
  begin
     id 24 
     name rclavicle
     direction -0.905329 0.382405 -0.184787   
     length 3.30787  
     axis 0 0 0   XYZ 
    dof ry rz
    limits (-10.0 20.0)
           (-20.0 0.0)
  end
  begin
     id 25 
     name rhumerus
     direction -1 -4.48953e-011 -9.15316e-029  
     length 5.28721   
     axis 180 30 90   XYZ
    dof rx ry rz
    limits (-90.0 60.0)
           (-90.0 90.0)
           (-90.0 90.0)
  end
  begin
     id 26 
     name rradius
     direction -1 -4.48987e-011 9.37824e-028   
     length 3.50544   
     axis 180 30 90   XYZ
    dof rx
    limits (-10.0 170.0)
  end
  begin
     id 27 
     name rwrist
     direction -1 -4.48967e-011 -9.58414e-028   
     length 1.75272   
     axis 8.48502e-016 -90 -90   XYZ
    dof ry
    limits (-180.0 0.0)
  end
  begin
     id 28
     name rhand
     direction -1 -4.48904e-011 -1.91266e-027   
     length 0.884996   
     axis 1.22306e-015 -90 -90   XYZ
    dof rx rz
    limits (-90.0 90.0)
           (-45.0 45.0)
  end
  begin
     id 29
     name rfingers
     direction -1 -4.4909e-011 -3.85015e-027   
     length 0.713507   
     axis 2.44611e-015 -90 -90   XYZ
    dof rx
    limits (0.0 90.0)
  end
  begin
     id 30
     name rthumb
     direction -0.707107 -6.34853e-011 0.707107   
     length 1.02446   
     axis -90 -45 1.62303e-014   XYZ
    dof rx rz
    limits (-45.0 45.0)
           (-45.0 45.0)
  end
:hierarchy
  begin
    root lhipjoint rhipjoint lowerback
    lhipjoint lfemur
    lfemur ltibia
    ltibia lfoot
    lfoot ltoes
    rhipjoint rfemur
    rfemur rtibia
    rtibia rfoot
    rfoot rtoes
    lowerback upperback
    upperback thorax
    thorax lowerneck lclavicle rclavicle
    lowerneck upperneck
    upperneck head
    lclavicle lhumerus
    lhumerus lradius
    lradius lwrist
    lwrist lhand lthumb
    lhand lfingers
    rclavicle rhumerus
    rhumerus rradius
    rradius rwrist
    rwrist rhand rthumb
    rhand rfingers
  end

#!OML:ASF F:\twosubjects\two\Thursday\Session 1\justin.ASF
:FULLY-SPECIFIED
:DEGREES
130
root 11.8515 17.4179 8.3389 21.9923 -70.9863 -15.7839
lowerback 15.3544 -1.10228 -2.78464
upperback 8.66688 -2.20467 4.51006
thorax 0.904877 -1.52113 6.66037
lowerneck -16.2221 10.2646 -5.90302
upperneck 0.483159 14.684 -0.284797
head 2.5034 7.2381 1.89489
rclavicle -2.22639e-014 2.0276e-014
rhumerus -73.4499 -7.37463 -41.727
rradius 19.1388
rwrist 28.6093
rhand -42.126 16.1386
rfingers 7.12502
rthumb -15.0166 -13.2969
lclavicle -2.22639e-014 2.0276e-014
lhumerus -23.102 29.6898 0.36853
lradius 31.0122
lwrist -14.3952
lhand -20.1591 46.7782
lfingers 7.12502
lthumb 6.18621 76.6679
rfemur -35.2963 -0.495672 16.0223
rtibia 42.0055
rfoot -12.1149 -6.24201
rtoes -25.0109
lfemur -19.9791 10.7319 2.8061
ltibia 45.8877
lfoot -10.4827 11.7482
ltoes -16.3221
131
root 11.8456 17.4166 8.25515 15.2596 -71.4603 -8.95778
lowerback 15.7997 -1.0615 -4.97401
upperback 8.71942 -2.43961 3.91868
thorax 0.844949 -1.69978 7.33848
lowerneck -16.489 10.3374 -4.79297
upperneck 0.642143 14.6591 -1.48904
head 2.78754 7.1629 1.37862
rclavicle 3.21037e-014 3.52843e-015
rhumerus -73.1887 -7.53511 -41.8926
rradius 19.2126
rwrist 28.8549
rhand -42.2132 15.921
rfingers 7.12502
rthumb -15.1005 -13.5082
lclavicle 3.21037e-014 3.52843e-015
lhumerus -23.4866 30.0371 0.0704843
lradius 30.7045
lwrist -14.4751
lhand -19.8586 47.2064
lfingers 7.12502
lthumb 6.47632 77.0874
rfemur -35.2517 -1.77808 14.0091
rtibia 42.2053
rfoot -12.4218 -5.07211
rtoes -25.2315
lfemur -20.3948 9.97068 0.0818891
ltibia 46.5272
lfoot -10.6185 12.5617
ltoes -12.6113
132
root 11.8275 17.4297 8.19268 17.1017 -71.8525 -10.6054
lowerback 15.4255 -1.12973 -4.54078
upperback 8.77775 -2.46513 3.8833
thorax 1.08116 -1.70558 7.03275
lowerneck -16.6329 10.6493 -2.88847
upperneck 0.69542 14.8234 -3.2053
head 3.12572 7.16274 0.585438
rclavicle -2.5196e-014 3.52719e-014
rhumerus -72.7344 -7.68074 -41.9757
rradius 19.1394
rwrist 28.9552
rhand -41.9165 16.2992
rfingers 7.12502
rthumb -14.8148 -13.1513
lclavicle -2.5196e-014 3.52719e-014
lhumerus -24.122 30.3529 -0.529775
lradius 30.5154
lwrist -14.5499
lhand -19.5306 47.5093
lfingers 7.12502
lthumb 6.793 77.3804
rfemur -35.7527 -2.00666 14.7757
rtibia 42.3487
rfoot -12.7518 -4.07812
rtoes -21.9796
lfemur -20.9876 10.4199 0.24155
ltibia 47.1785
lfoot -10.9105 12.6675
ltoes -10.6801
133
root 11.825 17.4328 8.1348 17.314 -72.4171 -10.7679
lowerback 15.5494 -1.06168 -4.63713
upperback 8.80031 -2.39783 3.84866
thorax 1.0329 -1.67594 7.0474
lowerneck -16.7395 10.8143 -2.35469
upperneck 0.605207 14.9789 -3.8654
head 3.21618 7.20874 0.315873
rclavicle -2.04003e-014 -4.46023e-015
rhumerus -71.9995 -7.36931 -42.5543
rradius 19.1307
rwrist 27.8689
rhand -41.3822 16.5691
rfingers 7.12502
rthumb -14.3 -12.9185
lclavicle -2.04003e-014 -4.46023e-015
lhumerus -24.8288 30.4243 -0.750187
lradius 30.4866
lwrist -14.3878
lhand -19.3233 47.5184
lfingers 7.12502
lthumb 6.99305 77.3829
rfemur -36.0977 -2.22857 15.0246
rtibia 42.464
rfoot -12.8224 -3.17791
rtoes -19.3463
lfemur -21.3592 10.8892 -0.158741
ltibia 47.8197
lfoot -11.2483 12.0325
ltoes -10.1003
134
root 11.8302 17.4277 8.07355 17.3727 -73.1513 -10.9338
lowerback 15.9211 -0.81131 -4.8113
upperback 8.80692 -2.11261 3.91849
thorax 0.812249 -1.5385 7.20207
lowerneck -16.5529 10.7615 -2.58102
upperneck 0.299287 14.9426 -4.13008
head 3.07776 7.18873 0.239673
rclavicle -4.58447e-015 -6.65929e-015
rhumerus -71.4721 -7.33636 -42.375
rradius 19.2232
rwrist 27.4926
rhand -41.0292 16.3561
rfingers 7.12502
rthumb -13.9598 -13.1553
lclavicle -4.58447e-015 -6.65929e-015
lhumerus -25.2448 30.4221 -0.488149
lradius 30.4481
lwrist -14.0196
lhand -19.2343 47.3131
lfingers 7.12502
lthumb 7.07898 77.1747
rfemur -36.2178 -2.15053 15.1997
rtibia 42.4128
rfoot -12.6855 -2.35499
rtoes -18.4812
lfemur -21.5658 11.2921 -0.543967
ltibia 48.5444
lfoot -11.8081 10.7678
ltoes -14.0432
135
root 11.8407 17.4276 8.02241 17.6571 -73.9153 -11.2107
lowerback 16.1473 -0.606234 -4.89196
upperback 8.79888 -1.86811 3.9578
thorax 0.650955 -1.41697 7.26671
lowerneck -16.1709 10.6965 -3.05267
upperneck -0.219463 14.8906 -4.0264
head 2.77646 7.19 0.290798
rclavicle 4.38817e-014 -6.29153e-014
rhumerus -71.1428 -7.62733 -41.6623
rradius 19.5598
rwrist 27.4478
rhand -40.3136 16.6406
rfingers 7.12502
rthumb -13.2701 -12.917
lclavicle 4.38817e-014 -6.29153e-014
lhumerus -25.6477 30.6019 -0.317796
lradius 30.3601
lwrist -13.5755
lhand -18.5992 47.4344
lfingers 7.12502
lthumb 7.692 77.2745
rfemur -36.4435 -2.06583 15.3225
rtibia 42.3308
rfoot -12.621 -1.43608
rtoes -16.5762
lfemur -21.9286 11.749 -1.02412
ltibia 49.2431
lfoot -12.4865 9.40548
ltoes -21.5572
136
root 11.8562 17.4277 7.98716 17.0177 -74.6326 -10.3594
lowerback 16.2168 -0.50547 -5.12033
upperback 8.79704 -1.77234 3.8106
thorax 0.600267 -1.37141 7.22801
lowerneck -16.0927 10.8209 -2.94602
upperneck -0.545737 15.0169 -4.12833
head 2.66565 7.25945 0.233349
rclavicle -6.36111e-015 -3.72721e-015
rhumerus -70.8774 -7.56776 -42.1356
rradius 20.5607
rwrist 24.8988
rhand -38.3226 17.8693
rfingers 7.12502
rthumb -11.3504 -11.8035
lclavicle -6.36111e-015 -3.72721e-015
lhumerus -26.164 31.0282 -0.400255
lradius 30.1955
lwrist -13.4948
lhand -17.9759 47.6238
lfingers 7.12502
lthumb 8.29358 77.441
rfemur -36.8082 -2.15097 15.1499
rtibia 42.2093
rfoot -12.5202 -0.836537
rtoes -15.9844
lfemur -22.4921 12.1598 -1.95078
ltibia 49.9016
lfoot -13.9503 7.5024
ltoes -23.1248
137
root 11.8718 17.4311 7.95499 16.517 -75.1687 -9.7198
lowerback 16.2843 -0.532386 -5.19304
upperback 8.83599 -1.82683 3.67414
thorax 0.612643 -1.40101 7.13167
lowerneck -15.8144 11.0992 -2.57679
upperneck -0.990077 15.303 -4.51267
head 2.52637 7.40392 0.0447445
rclavicle 5.50634e-014 -2.99171e-014
rhumerus -70.3966 -7.2043 -42.8708
rradius 21.9121
rwrist 21.4671
rhand -35.4362 18.3971
rfingers 7.12502
rthumb -8.56574 -11.4092
lclavicle 5.50634e-014 -2.99171e-014
lhumerus -26.9251 31.362 -0.652576
lradius 30.0431
lwrist -13.6535
lhand -17.9911 47.7984
lfingers 7.12502
lthumb 8.27895 77.6162
rfemur -37.0584 -2.07023 15.048
rtibia 42.0674
rfoot -12.2593 -0.763213
rtoes -17.5142
lfemur -23.0025 12.2769 -2.76346
ltibia 50.502
lfoot -15.8331 4.55881
ltoes -20.475
138
root 11.8864 17.4352 7.91901 17.066 -75.6828 -10.2465
lowerback 16.3943 -0.554336 -4.96697
upperback 8.89442 -1.83915 3.63713
thorax 0.607454 -1.40343 6.96548
lowerneck -15.5531 11.2544 -2.82291
upperneck -1.39729 15.512 -4.39646
head 2.3076 7.53119 0.094558
rclavicle 1.04859e-014 -3.55328e-014
rhumerus -69.7496 -7.03054 -42.8635
rradius 23.1458
rwrist 18.9497
rhand -32.261 18.1052
rfingers 7.12502
rthumb -5.50077 -11.8034
lclavicle 1.04859e-014 -3.55328e-014
lhumerus -27.6275 31.4759 -0.730678
lradius 29.9796
lwrist -13.3887
lhand -18.0405 47.8388
lfingers 7.12502
lthumb 8.23126 77.6584
rfemur -37.2276 -1.84038 15.2463
rtibia 41.8839
rfoot -12.0509 -0.725748
rtoes -18.8082
lfemur -23.3887 12.3057 -3.26552
ltibia 51.0411
lfoot -17.3986 1.58479
ltoes -20.3564
139
root 11.9009 17.4404 7.87974 17.8851 -76.3075 -11.0266
lowerback 16.464 -0.402592 -4.7553
upperback 8.98759 -1.62609 3.62751
thorax 0.627714 -1.29672 6.80151
lowerneck -15.8411 11.2693 -2.82924
upperneck -1.34809 15.5449 -4.43958
head 2.37911 7.5377 0.105853
rclavicle -5.98839e-015 1.19768e-014
rhumerus -69.351 -7.1249 -42.778
rradius 24.4707
rwrist 16.4343
rhand -29.0138 17.9001
rfingers 7.12502
rthumb -2.36505 -12.0665
lclavicle -5.98839e-015 1.19768e-014
lhumerus -27.8967 31.9739 -0.408643
lradius 29.9076
lwrist -13.124
lhand -18.0362 47.712
lfingers 7.12502
lthumb 8.2354 77.5315
rfemur -37.416 -1.48289 15.4768
rtibia 41.6631
rfoot -11.8707 -0.624104
rtoes -18.6959
lfemur -23.7155 12.4103 -3.66802
ltibia 51.5264
lfoot -18.6648 -2.35252
ltoes -16.8325
140
root 11.9169 17.4546 7.8427 18.462 -76.9561 -11.4923
lowerback 16.474 -0.219185 -4.84349
upperback 9.11878 -1.41308 3.7403
thorax 0.738859 -1.21062 6.941
lowerneck -16.1651 11.3369 -2.755
upperneck -1.41745 15.6397 -4.79234
head 2.45176 7.56343 0.0133982
rclavicle 7.7526e-015 2.52457e-014
rhumerus -68.721 -7.26646 -42.4894
rradius 25.9377
rwrist 13.8517
rhand -25.4885 17.5561
rfingers 7.12502
rthumb 1.03977 -12.4211
lclavicle 7.7526e-015 2.52457e-014
lhumerus -28.3888 32.503 -0.0125265
lradius 29.879
lwrist -12.8131
lhand -18.2611 47.7934
lfingers 7.12502
lthumb 8.01837 77.6213
rfemur -37.6347 -1.01382 15.5601
rtibia 41.4119
rfoot -11.6236 -0.551199
rtoes -17.3306
lfemur -24.2216 12.7133 -4.26046
ltibia 51.976
lfoot -19.5367 -6.4505
ltoes -13.978
